<svg width="20" height="21" viewBox="0 0 20 21" fill="none" xmlns="http://www.w3.org/2000/svg">
<path d="M10 20.4814C4.477 20.4814 0 16.0044 0 10.4814C0 4.95838 4.477 0.481384 10 0.481384C15.523 0.481384 20 4.95838 20 10.4814C20 16.0044 15.523 20.4814 10 20.4814ZM10 18.4814C12.1217 18.4814 14.1566 17.6385 15.6569 16.1382C17.1571 14.6379 18 12.6031 18 10.4814C18 8.35965 17.1571 6.32482 15.6569 4.82453C14.1566 3.32424 12.1217 2.48138 10 2.48138C7.87827 2.48138 5.84344 3.32424 4.34315 4.82453C2.84285 6.32482 2 8.35965 2 10.4814C2 12.6031 2.84285 14.6379 4.34315 16.1382C5.84344 17.6385 7.87827 18.4814 10 18.4814ZM11 10.4814H15V12.4814H9V5.48138H11V10.4814Z" fill="#0866FB"/>
</svg>
