<svg width="11" height="11" viewBox="0 0 11 11" fill="none" xmlns="http://www.w3.org/2000/svg">
<path fill-rule="evenodd" clip-rule="evenodd" d="M0.295875 9.28927C-0.0863807 9.68789 -0.0731143 10.3209 0.325507 10.7032C0.724128 11.0854 1.35715 11.0722 1.73941 10.6735L5.33981 6.919L9.10901 10.6882C9.49953 11.0787 10.1327 11.0787 10.5232 10.6882C10.9137 10.2977 10.9137 9.66451 10.5232 9.27398L6.72439 5.47515L10.3521 1.69214C10.7343 1.29352 10.7211 0.66049 10.3225 0.278234C9.92384 -0.104022 9.29081 -0.0907557 8.90856 0.307866L5.30986 4.06062L1.70711 0.457871C1.31658 0.0673464 0.683417 0.0673464 0.292893 0.457871C-0.0976311 0.848395 -0.0976311 1.48156 0.292893 1.87208L3.92529 5.50448L0.295875 9.28927Z" fill="currentColor"/>
</svg>
