<svg width="37" height="38" viewBox="0 0 37 38" fill="none" xmlns="http://www.w3.org/2000/svg">
<circle cx="18.5" cy="19.4814" r="18.5" fill="#EE3E62"/>
<path d="M15.6907 9.65332H20.7312L19.8911 21.9679H16.5308L15.6907 9.65332ZM18.2109 28.7314C17.4702 28.7314 16.8469 28.4979 16.3411 28.0308C15.8533 27.5458 15.6094 26.962 15.6094 26.2793C15.6094 25.5967 15.8533 25.0308 16.3411 24.5817C16.8289 24.1146 17.4521 23.8811 18.2109 23.8811C18.9697 23.8811 19.593 24.1146 20.0808 24.5817C20.5686 25.0308 20.8125 25.5967 20.8125 26.2793C20.8125 26.962 20.5596 27.5458 20.0537 28.0308C19.5659 28.4979 18.9517 28.7314 18.2109 28.7314Z" fill="white"/>
</svg>
