<svg width="14" height="14" viewBox="0 0 14 14" fill="none" xmlns="http://www.w3.org/2000/svg">
<path d="M1.63327 11.9952C1.43328 12.0503 1.2505 11.8675 1.30563 11.6675L2.20698 8.39749C2.26169 8.19903 2.51001 8.13236 2.65489 8.27723L5.02355 10.6459C5.16842 10.7908 5.10175 11.0391 4.90329 11.0938L1.63327 11.9952Z" fill="#94BBFF"/>
<path d="M9.21272 1.38408C9.96519 0.631609 11.1852 0.631609 11.9377 1.38408C12.6901 2.13656 12.6901 3.35657 11.9377 4.10904L6.12011 9.92661C6.00067 10.046 5.80702 10.046 5.68757 9.92661L3.39515 7.63418C3.27571 7.51474 3.27571 7.32109 3.39515 7.20165L9.21272 1.38408Z" fill="#94BBFF"/>
</svg>
