<svg width="11" height="13" viewBox="0 0 11 13" fill="none" xmlns="http://www.w3.org/2000/svg">
<path d="M9.94231 1.74035H7.61538V1.34371C7.61538 0.686538 7.04714 0.153809 6.34615 0.153809H4.65385C3.95286 0.153809 3.38462 0.686538 3.38462 1.34371V1.74035H1.05769C0.473555 1.74035 0 2.18431 0 2.73193V3.5252C0 3.74427 0.189406 3.92184 0.423077 3.92184H10.5769C10.8106 3.92184 11 3.74427 11 3.5252V2.73193C11 2.18431 10.5264 1.74035 9.94231 1.74035ZM4.23077 1.34371C4.23077 1.12507 4.42063 0.947078 4.65385 0.947078H6.34615C6.57938 0.947078 6.76923 1.12507 6.76923 1.34371V1.74035H4.23077V1.34371Z" fill="#94BBFF"/>
<path d="M0.845703 5.23071H10.1534V10.8461C10.1534 11.9507 9.25797 12.8461 8.1534 12.8461H2.84571C1.74114 12.8461 0.845703 11.9507 0.845703 10.8461V5.23071Z" fill="#94BBFF"/>
</svg>
