<svg width="16" height="16" viewBox="0 0 16 16" fill="none" xmlns="http://www.w3.org/2000/svg">
<path fill-rule="evenodd" clip-rule="evenodd" d="M9.20726 3.63825C10.7694 5.20034 10.7694 7.733 9.20726 9.2951C7.64517 10.8572 5.11251 10.8572 3.55041 9.2951C1.98831 7.733 1.98831 5.20034 3.55041 3.63825C5.11251 2.07615 7.64517 2.07615 9.20726 3.63825ZM11.2699 9.94355C12.9399 7.60034 12.7237 4.32626 10.6215 2.22403C8.27833 -0.119112 4.47934 -0.119111 2.1362 2.22403C-0.20695 4.56718 -0.20695 8.36617 2.1362 10.7093C4.23842 12.8115 7.51251 13.0277 9.85571 11.3578L14.157 15.6591L15.5712 14.2448L11.2699 9.94355Z" fill="#81A6E7"/>
</svg>
