<svg width="11" height="11" viewBox="0 0 11 11" fill="none" xmlns="http://www.w3.org/2000/svg">
<path fill-rule="evenodd" clip-rule="evenodd" d="M0.479469 9.28927C0.097213 9.68789 0.110479 10.3209 0.5091 10.7032C0.907721 11.0854 1.54075 11.0722 1.923 10.6735L5.5234 6.919L9.2926 10.6882C9.68313 11.0787 10.3163 11.0787 10.7068 10.6882C11.0973 10.2977 11.0973 9.66451 10.7068 9.27398L6.90798 5.47515L10.5357 1.69214C10.9179 1.29352 10.9047 0.66049 10.5061 0.278234C10.1074 -0.104022 9.47441 -0.0907557 9.09215 0.307866L5.49345 4.06062L1.8907 0.457871C1.50018 0.0673464 0.867011 0.0673464 0.476487 0.457871C0.0859627 0.848395 0.0859627 1.48156 0.476487 1.87208L4.10888 5.50448L0.479469 9.28927Z" fill="#81A6E7"/>
</svg>
