<svg width="11" height="12" viewBox="0 0 11 12" fill="none" xmlns="http://www.w3.org/2000/svg">
<path fill-rule="evenodd" clip-rule="evenodd" d="M0.295875 10.2707C-0.0863807 10.6693 -0.0731143 11.3024 0.325507 11.6846C0.724128 12.0669 1.35715 12.0536 1.73941 11.655L5.33981 7.90045L9.10901 11.6696C9.49953 12.0602 10.1327 12.0602 10.5232 11.6696C10.9137 11.2791 10.9137 10.646 10.5232 10.2554L6.72439 6.45659L10.3521 2.67358C10.7343 2.27496 10.7211 1.64194 10.3225 1.25968C9.92384 0.877424 9.29081 0.89069 8.90856 1.28931L5.30986 5.04207L1.70711 1.43932C1.31658 1.04879 0.683417 1.04879 0.292893 1.43932C-0.0976311 1.82984 -0.0976311 2.46301 0.292893 2.85353L3.92529 6.48592L0.295875 10.2707Z" fill="#0866FB"/>
</svg>
