<svg width="185" height="51" viewBox="0 0 185 51" fill="none" xmlns="http://www.w3.org/2000/svg">
<g clip-path="url(#clip0_928_6672)">
<rect width="51" height="51" rx="15" fill="white"/>
<path d="M0 0H253V253H0V0Z" fill="url(#paint0_linear_928_6672)"/>
<g style="mix-blend-mode:color-dodge" filter="url(#filter0_f_928_6672)">
<path d="M87.7892 85.387C74.9621 110.374 50.1106 123.211 32.2818 114.059C14.4531 104.907 10.3985 77.2309 23.2256 52.2436C36.0527 27.2562 60.9042 14.4194 78.733 23.5717C96.5618 32.724 100.616 60.3997 87.7892 85.387Z" fill="#0C5FE9"/>
</g>
<g style="mix-blend-mode:color-dodge" filter="url(#filter1_f_928_6672)">
<path d="M26.6053 11.6502C18.4807 27.4771 2.73975 35.6079 -8.55295 29.8109C-19.8456 24.0138 -22.4138 6.48412 -14.2892 -9.34281C-6.16448 -25.1697 9.57642 -33.3006 20.8691 -27.5035C32.1618 -21.7064 34.73 -4.17674 26.6053 11.6502Z" fill="#0C5FE9"/>
</g>
<g style="mix-blend-mode:darken" filter="url(#filter2_f_928_6672)">
<path d="M14.6053 49.6502C6.48065 65.4771 -9.26025 73.6079 -20.5529 67.8109C-31.8456 62.0138 -34.4138 44.4841 -26.2892 28.6572C-18.1645 12.8303 -2.42358 4.69944 8.86912 10.4965C20.1618 16.2936 22.73 33.8233 14.6053 49.6502Z" fill="#073BF2"/>
</g>
<path d="M25.5191 39.95C21.3647 39.95 18.1915 39.1772 15.9996 37.6318C13.8332 36.0863 12.75 33.8454 12.75 30.9091V30.5227H19.3639V30.9091C19.3639 31.9651 19.9119 32.7765 21.0079 33.3432C22.1038 33.8841 23.6968 34.1545 25.7867 34.1545C29.5079 34.1545 31.3684 33.4462 31.3684 32.0295V31.7591C31.3684 31.2439 31.1136 30.8447 30.6038 30.5613C30.0941 30.2522 29.2657 30.0076 28.1188 29.8272L21.3519 28.7841C18.5993 28.3462 16.5349 27.5606 15.1585 26.4272C13.8077 25.2939 13.1323 23.7613 13.1323 21.8295V21.4432C13.1323 18.9704 14.1773 17.0515 16.2672 15.6863C18.3827 14.2954 21.3519 13.6 25.175 13.6C29.202 13.6 32.286 14.3469 34.4269 15.8409C36.5933 17.3091 37.6765 19.4341 37.6765 22.2159V22.525H31.1008V22.2159C31.1008 20.3356 29.1256 19.3954 25.175 19.3954C23.4419 19.3954 22.1293 19.5629 21.2373 19.8977C20.3452 20.2068 19.8992 20.6704 19.8992 21.2886V21.5591C19.8992 21.9969 20.1286 22.3447 20.5873 22.6022C21.0716 22.8341 21.8744 23.0401 22.9959 23.2204L29.7627 24.2636C32.6428 24.7015 34.771 25.5129 36.1473 26.6977C37.5491 27.8568 38.25 29.4409 38.25 31.45V31.8363C38.25 34.4121 37.1286 36.4083 34.8857 37.825C32.6683 39.2416 29.5461 39.95 25.5191 39.95Z" fill="url(#paint1_linear_928_6672)"/>
</g>
<path d="M82.4089 42.5894V42.8666H80.6984L80.1999 41.6246H77.209L76.7105 42.8666H75V42.5894L77.7466 36.1334H79.6624L82.4089 42.5894ZM79.5939 40.0953L78.7045 37.868L77.815 40.0953H79.5939Z" fill="#0F244A"/>
<path d="M87.4675 36.1334C88.2559 36.1334 88.8717 36.3319 89.3148 36.7287C89.7644 37.1188 89.9893 37.6593 89.9893 38.3504V38.4531C89.9893 39.1442 89.7644 39.6882 89.3148 40.085C88.8717 40.4819 88.2559 40.6804 87.4675 40.6804H85.0825V42.8666H83.3525V36.1334H87.4675ZM87.4284 39.0997C87.689 39.0997 87.8878 39.045 88.0246 38.9355C88.1614 38.826 88.2299 38.6652 88.2299 38.4531V38.3504C88.2299 38.1452 88.1614 37.9878 88.0246 37.8783C87.8878 37.7688 87.689 37.7141 87.4284 37.7141H85.0825V39.0997H87.4284Z" fill="#0F244A"/>
<path d="M95.3564 36.1334C96.1449 36.1334 96.7607 36.3319 97.2038 36.7287C97.6534 37.1188 97.8782 37.6593 97.8782 38.3504V38.4531C97.8782 39.1442 97.6534 39.6882 97.2038 40.085C96.7607 40.4819 96.1449 40.6804 95.3564 40.6804H92.9715V42.8666H91.2414V36.1334H95.3564ZM95.3173 39.0997C95.578 39.0997 95.7767 39.045 95.9136 38.9355C96.0504 38.826 96.1188 38.6652 96.1188 38.4531V38.3504C96.1188 38.1452 96.0504 37.9878 95.9136 37.8783C95.7767 37.7688 95.578 37.7141 95.3173 37.7141H92.9715V39.0997H95.3173Z" fill="#0F244A"/>
<path d="M100.86 36.1334V41.2449H105.015V42.8666H99.1304V36.1334H100.86Z" fill="#0F244A"/>
<path d="M107.669 36.1334V42.8666H105.938V36.1334H107.669Z" fill="#0F244A"/>
<path d="M115.926 42.5894V42.8666H114.216L113.717 41.6246H110.726L110.228 42.8666H108.517V42.5894L111.264 36.1334H113.18L115.926 42.5894ZM113.111 40.0953L112.222 37.868L111.332 40.0953H113.111Z" fill="#0F244A"/>
<path d="M123.487 36.1334V42.8666H121.864L118.502 38.6994V42.8666H116.87V36.1334H118.492L121.855 40.2903V36.1334H123.487Z" fill="#0F244A"/>
<path d="M128.71 43C127.921 43 127.227 42.8597 126.628 42.5792C126.035 42.2918 125.575 41.8881 125.25 41.368C124.93 40.848 124.771 40.239 124.771 39.5411V39.4692C124.771 38.7713 124.93 38.1623 125.25 37.6422C125.575 37.1153 126.035 36.7116 126.628 36.4311C127.227 36.1437 127.921 36 128.71 36C129.446 36 130.107 36.1266 130.694 36.3798C131.28 36.6329 131.736 36.9819 132.062 37.4267C132.395 37.8715 132.561 38.3744 132.561 38.9355V39.0176H130.792V38.9355C130.792 38.5591 130.599 38.2581 130.215 38.0323C129.837 37.8065 129.335 37.6935 128.71 37.6935C127.257 37.6935 126.53 38.2786 126.53 39.4487V39.5718C126.53 40.1535 126.709 40.588 127.068 40.8754C127.426 41.1628 127.973 41.3065 128.71 41.3065C129.355 41.3065 129.863 41.197 130.234 40.978C130.606 40.759 130.792 40.458 130.792 40.0748V40.0029H132.561V40.0748C132.561 40.6359 132.395 41.1388 132.062 41.5836C131.736 42.0283 131.28 42.3773 130.694 42.6305C130.107 42.8768 129.446 43 128.71 43Z" fill="#0F244A"/>
<path d="M139.638 36.1334V37.7038H135.542V38.7199H139.442V40.2698H135.542V41.2962H139.638V42.8666H133.812V36.1334H139.638Z" fill="#0F244A"/>
<path d="M151.817 38.4633C151.817 39.0108 151.661 39.4555 151.348 39.7977C151.035 40.1398 150.582 40.3587 149.989 40.4545L151.778 42.5894V42.8666H149.823L147.917 40.5059H146.91V42.8666H145.18V36.1334H149.295C150.077 36.1334 150.693 36.3319 151.142 36.7287C151.592 37.1256 151.817 37.6696 151.817 38.3607V38.4633ZM150.058 38.3504C150.058 37.9262 149.79 37.7141 149.256 37.7141H146.91V39.0997H149.256C149.517 39.0997 149.715 39.045 149.852 38.9355C149.989 38.826 150.058 38.6652 150.058 38.4531V38.3504Z" fill="#0F244A"/>
<path d="M159.076 36.1334V37.7038H154.98V38.7199H158.88V40.2698H154.98V41.2962H159.076V42.8666H153.25V36.1334H159.076Z" fill="#0F244A"/>
<path d="M164.624 36.1334C165.413 36.1334 166.029 36.3319 166.472 36.7287C166.921 37.1188 167.146 37.6593 167.146 38.3504V38.4531C167.146 39.1442 166.921 39.6882 166.472 40.085C166.029 40.4819 165.413 40.6804 164.624 40.6804H162.239V42.8666H160.509V36.1334H164.624ZM164.585 39.0997C164.846 39.0997 165.045 39.045 165.182 38.9355C165.318 38.826 165.387 38.6652 165.387 38.4531V38.3504C165.387 38.1452 165.318 37.9878 165.182 37.8783C165.045 37.7688 164.846 37.7141 164.585 37.7141H162.239V39.0997H164.585Z" fill="#0F244A"/>
<path d="M174.303 42.5894V42.8666H172.593L172.094 41.6246H169.103L168.605 42.8666H166.894V42.5894L169.641 36.1334H171.557L174.303 42.5894ZM171.488 40.0953L170.599 37.868L169.709 40.0953H171.488Z" fill="#0F244A"/>
<path d="M176.879 36.1334V42.8666H175.149V36.1334H176.879Z" fill="#0F244A"/>
<path d="M185 38.4633C185 39.0108 184.844 39.4555 184.531 39.7977C184.218 40.1398 183.765 40.3587 183.172 40.4545L184.961 42.5894V42.8666H183.006L181.1 40.5059H180.093V42.8666H178.363V36.1334H182.478C183.26 36.1334 183.876 36.3319 184.326 36.7287C184.775 37.1256 185 37.6696 185 38.3607V38.4633ZM183.241 38.3504C183.241 37.9262 182.973 37.7141 182.439 37.7141H180.093V39.0997H182.439C182.7 39.0997 182.899 39.045 183.035 38.9355C183.172 38.826 183.241 38.6652 183.241 38.4531V38.3504Z" fill="#0F244A"/>
<path d="M85.0386 29C82.0979 29 79.8518 28.4428 78.3002 27.3284C76.7667 26.2141 76 24.5982 76 22.4809V22.2023H80.6817V22.4809C80.6817 23.2424 81.0696 23.8275 81.8453 24.2361C82.6211 24.6261 83.7487 24.8211 85.228 24.8211C87.862 24.8211 89.179 24.3104 89.179 23.2889V23.0938C89.179 22.7224 88.9986 22.4345 88.6378 22.2302C88.277 22.0073 87.6906 21.8309 86.8788 21.7009L82.0889 20.9487C80.1404 20.6329 78.6791 20.0665 77.7049 19.2493C76.7487 18.4321 76.2706 17.327 76.2706 15.934V15.6554C76.2706 13.8724 77.0103 12.4888 78.4897 11.5044C79.9871 10.5015 82.0889 10 84.795 10C87.6455 10 89.8285 10.5386 91.344 11.6158C92.8775 12.6745 93.6442 14.2067 93.6442 16.2126V16.4355H88.9896V16.2126C88.9896 14.8568 87.5914 14.1789 84.795 14.1789C83.5683 14.1789 82.6391 14.2996 82.0077 14.5411C81.3763 14.7639 81.0605 15.0982 81.0605 15.544V15.739C81.0605 16.0547 81.2229 16.3055 81.5476 16.4912C81.8904 16.6584 82.4587 16.8069 83.2525 16.937L88.0425 17.6892C90.0811 18.0049 91.5875 18.5899 92.5618 19.4443C93.554 20.2801 94.0501 21.4223 94.0501 22.871V23.1496C94.0501 25.0068 93.2563 26.4462 91.6687 27.4677C90.0991 28.4892 87.8891 29 85.0386 29Z" fill="#0866FB"/>
<path d="M107.865 29C105.718 29 103.824 28.6193 102.182 27.8578C100.558 27.0777 99.3042 25.9819 98.4202 24.5704C97.5362 23.1403 97.0942 21.4873 97.0942 19.6114V19.4164C97.0942 17.522 97.5362 15.869 98.4202 14.4575C99.3042 13.0274 100.558 11.9316 102.182 11.1701C103.824 10.39 105.718 10 107.865 10C110.048 10 111.951 10.39 113.575 11.1701C115.198 11.9316 116.452 13.0274 117.336 14.4575C118.22 15.869 118.662 17.522 118.662 19.4164V19.6114C118.662 21.5059 118.22 23.1588 117.336 24.5704C116.452 25.9819 115.198 27.0777 113.575 27.8578C111.951 28.6193 110.048 29 107.865 29ZM107.865 24.4032C111.816 24.4032 113.791 22.8338 113.791 19.695V19.3607C113.791 17.8006 113.286 16.6212 112.276 15.8226C111.284 15.0054 109.813 14.5968 107.865 14.5968C105.952 14.5968 104.491 15.0054 103.481 15.8226C102.47 16.6398 101.965 17.8192 101.965 19.3607V19.695C101.965 21.2366 102.461 22.4066 103.454 23.2053C104.446 24.0039 105.916 24.4032 107.865 24.4032Z" fill="#0866FB"/>
<path d="M132.273 29C130.09 29 128.169 28.6193 126.509 27.8578C124.867 27.0777 123.595 25.9819 122.693 24.5704C121.809 23.1588 121.367 21.5059 121.367 19.6114V19.4164C121.367 17.522 121.809 15.869 122.693 14.4575C123.595 13.0274 124.867 11.9316 126.509 11.1701C128.169 10.39 130.09 10 132.273 10C134.312 10 136.143 10.3436 137.767 11.0308C139.39 11.718 140.653 12.6652 141.555 13.8724C142.475 15.0797 142.935 16.4448 142.935 17.9677V18.1906H138.037V17.9677C138.037 16.9462 137.505 16.129 136.441 15.5161C135.394 14.9032 134.005 14.5968 132.273 14.5968C128.25 14.5968 126.238 16.1848 126.238 19.3607V19.695C126.238 21.2737 126.734 22.4531 127.727 23.2331C128.719 24.0132 130.234 24.4032 132.273 24.4032C134.059 24.4032 135.466 24.1061 136.495 23.5117C137.523 22.9174 138.037 22.1002 138.037 21.0601V20.8651H142.935V21.0601C142.935 22.5831 142.475 23.9482 141.555 25.1554C140.653 26.3627 139.39 27.3099 137.767 27.9971C136.143 28.6657 134.312 29 132.273 29Z" fill="#0866FB"/>
<path d="M164.097 27.8856V28.6378H159.361L157.981 25.2669H149.7L148.32 28.6378H143.584V27.8856L151.188 10.3622H156.492L164.097 27.8856ZM156.303 21.1158L153.84 15.0704L151.378 21.1158H156.303Z" fill="#0866FB"/>
<path d="M171.499 10.3622V24.2361H183V28.6378H166.709V10.3622H171.499Z" fill="#0866FB"/>
<defs>
<filter id="filter0_f_928_6672" x="-14.2642" y="-9.3808" width="139.543" height="156.392" filterUnits="userSpaceOnUse" color-interpolation-filters="sRGB">
<feFlood flood-opacity="0" result="BackgroundImageFix"/>
<feBlend mode="normal" in="SourceGraphic" in2="BackgroundImageFix" result="shape"/>
<feGaussianBlur stdDeviation="15" result="effect1_foregroundBlur_928_6672"/>
</filter>
<filter id="filter1_f_928_6672" x="-49.0332" y="-59.3737" width="110.382" height="121.055" filterUnits="userSpaceOnUse" color-interpolation-filters="sRGB">
<feFlood flood-opacity="0" result="BackgroundImageFix"/>
<feBlend mode="normal" in="SourceGraphic" in2="BackgroundImageFix" result="shape"/>
<feGaussianBlur stdDeviation="15" result="effect1_foregroundBlur_928_6672"/>
</filter>
<filter id="filter2_f_928_6672" x="-61.0332" y="-21.3737" width="110.382" height="121.055" filterUnits="userSpaceOnUse" color-interpolation-filters="sRGB">
<feFlood flood-opacity="0" result="BackgroundImageFix"/>
<feBlend mode="normal" in="SourceGraphic" in2="BackgroundImageFix" result="shape"/>
<feGaussianBlur stdDeviation="15" result="effect1_foregroundBlur_928_6672"/>
</filter>
<linearGradient id="paint0_linear_928_6672" x1="126.5" y1="0" x2="126.5" y2="253" gradientUnits="userSpaceOnUse">
<stop stop-color="#52ABFD"/>
<stop offset="1" stop-color="#0664FB"/>
</linearGradient>
<linearGradient id="paint1_linear_928_6672" x1="25.5093" y1="1.64045" x2="25.5093" y2="51.8843" gradientUnits="userSpaceOnUse">
<stop stop-color="white"/>
<stop offset="1" stop-color="white"/>
</linearGradient>
<clipPath id="clip0_928_6672">
<rect width="51" height="51" rx="15" fill="white"/>
</clipPath>
</defs>
</svg>
